<svg width="43" height="35" viewBox="0 0 43 35" fill="none" xmlns="http://www.w3.org/2000/svg">
<path d="M9.675 0.342163C11.1005 0.342163 12.4677 0.903171 13.4757 1.90177C14.4837 2.90037 15.05 4.25476 15.05 5.667C15.05 7.07923 14.4837 8.43363 13.4757 9.43223C12.4677 10.4308 11.1005 10.9918 9.675 10.9918C8.24946 10.9918 6.88231 10.4308 5.8743 9.43223C4.86629 8.43363 4.3 7.07923 4.3 5.667C4.3 4.25476 4.86629 2.90037 5.8743 1.90177C6.88231 0.903171 8.24946 0.342163 9.675 0.342163ZM34.4 0.342163C35.8255 0.342163 37.1927 0.903171 38.2007 1.90177C39.2087 2.90037 39.775 4.25476 39.775 5.667C39.775 7.07923 39.2087 8.43363 38.2007 9.43223C37.1927 10.4308 35.8255 10.9918 34.4 10.9918C32.9745 10.9918 31.6073 10.4308 30.5993 9.43223C29.5913 8.43363 29.025 7.07923 29.025 5.667C29.025 4.25476 29.5913 2.90037 30.5993 1.90177C31.6073 0.903171 32.9745 0.342163 34.4 0.342163ZM0 20.2238C0 16.3034 3.21156 13.1218 7.16891 13.1218H10.0378C11.1061 13.1218 12.1206 13.3547 13.0344 13.7674C12.947 14.2466 12.9067 14.7458 12.9067 15.2517C12.9067 17.7943 14.0355 20.0773 15.8159 21.6415C15.8025 21.6415 15.7891 21.6415 15.7689 21.6415H1.43109C0.645 21.6415 0 21.0025 0 20.2238ZM27.2311 21.6415C27.2177 21.6415 27.2042 21.6415 27.1841 21.6415C28.9713 20.0773 30.0933 17.7943 30.0933 15.2517C30.0933 14.7458 30.0463 14.2533 29.9656 13.7674C30.8794 13.3481 31.8939 13.1218 32.9622 13.1218H35.8311C39.7884 13.1218 43 16.3034 43 20.2238C43 21.0092 42.355 21.6415 41.5689 21.6415H27.2311ZM15.05 15.2517C15.05 13.557 15.7296 11.9318 16.9392 10.7334C18.1488 9.53511 19.7894 8.8619 21.5 8.8619C23.2106 8.8619 24.8512 9.53511 26.0608 10.7334C27.2705 11.9318 27.95 13.557 27.95 15.2517C27.95 16.9464 27.2705 18.5717 26.0608 19.77C24.8512 20.9683 23.2106 21.6415 21.5 21.6415C19.7894 21.6415 18.1488 20.9683 16.9392 19.77C15.7296 18.5717 15.05 16.9464 15.05 15.2517ZM8.6 32.6439C8.6 27.7451 12.6111 23.7714 17.5561 23.7714H25.4439C30.3889 23.7714 34.4 27.7451 34.4 32.6439C34.4 33.6224 33.6005 34.4211 32.6061 34.4211H10.3939C9.40625 34.4211 8.6 33.629 8.6 32.6439Z" fill="#FFFFFF" fill-opacity="0.85"/>
</svg>
