<svg width="43" height="43" viewBox="0 0 43 43" fill="none" xmlns="http://www.w3.org/2000/svg">
<g clip-path="url(#clip0_4_75)">
<path d="M21.5 4.03125C26.133 4.03125 30.5762 5.8717 33.8523 9.14773C37.1283 12.4238 38.9688 16.867 38.9688 21.5C38.9688 26.133 37.1283 30.5762 33.8523 33.8523C30.5762 37.1283 26.133 38.9688 21.5 38.9688C16.867 38.9688 12.4238 37.1283 9.14773 33.8523C5.8717 30.5762 4.03125 26.133 4.03125 21.5C4.03125 16.867 5.8717 12.4238 9.14773 9.14773C12.4238 5.8717 16.867 4.03125 21.5 4.03125ZM21.5 43C27.2022 43 32.6708 40.7348 36.7028 36.7028C40.7348 32.6708 43 27.2022 43 21.5C43 15.7978 40.7348 10.3292 36.7028 6.2972C32.6708 2.26517 27.2022 0 21.5 0C15.7978 0 10.3292 2.26517 6.2972 6.2972C2.26517 10.3292 0 15.7978 0 21.5C0 27.2022 2.26517 32.6708 6.2972 36.7028C10.3292 40.7348 15.7978 43 21.5 43ZM30.9902 17.5527C31.7797 16.7633 31.7797 15.4867 30.9902 14.7057C30.2008 13.9246 28.9242 13.9162 28.1432 14.7057L18.8209 24.0279L14.8736 20.0807C14.0842 19.2912 12.8076 19.2912 12.0266 20.0807C11.2455 20.8701 11.2371 22.1467 12.0266 22.9277L17.4016 28.3027C18.191 29.0922 19.4676 29.0922 20.2486 28.3027L30.9902 17.5527Z" fill="#FFFFFF" fill-opacity="0.85"/>
</g>
<defs>
<clipPath id="clip0_4_75">
<rect width="43" height="43" fill="white"/>
</clipPath>
</defs>
</svg>
