<svg width="42" height="42" viewBox="0 0 42 42" fill="none" xmlns="http://www.w3.org/2000/svg">
<g clip-path="url(#clip0_4_80)">
<path d="M0.336328 3.13359C0.114844 2.80547 0 2.41172 0 2.01797C0 0.902344 0.902344 0 2.01797 0H10.984C11.9027 0 12.7641 0.483984 13.2316 1.27148L18.8508 10.6313C14.8969 11.1316 11.3613 12.9773 8.72813 15.709L0.336328 3.13359ZM41.6555 3.13359L33.2719 15.709C30.6387 12.9773 27.1031 11.1316 23.1492 10.6313L28.7684 1.27148C29.2441 0.483984 30.0973 0 31.016 0H39.982C41.0977 0 42 0.902344 42 2.01797C42 2.41172 41.8852 2.80547 41.6637 3.13359H41.6555ZM6.5625 27.5625C6.5625 23.7334 8.08359 20.0612 10.7911 17.3536C13.4987 14.6461 17.1709 13.125 21 13.125C24.8291 13.125 28.5013 14.6461 31.2089 17.3536C33.9164 20.0612 35.4375 23.7334 35.4375 27.5625C35.4375 31.3916 33.9164 35.0638 31.2089 37.7714C28.5013 40.4789 24.8291 42 21 42C17.1709 42 13.4987 40.4789 10.7911 37.7714C8.08359 35.0638 6.5625 31.3916 6.5625 27.5625ZM21.6891 19.7777C21.4102 19.2035 20.598 19.2035 20.3109 19.7777L18.4734 23.502C18.3586 23.7316 18.1453 23.8875 17.8992 23.9203L13.7812 24.5191C13.1496 24.6094 12.9035 25.3805 13.3547 25.8316L16.3324 28.7355C16.5129 28.916 16.5949 29.1621 16.5539 29.4164L15.8484 33.5098C15.7418 34.1332 16.398 34.6172 16.9641 34.3219L20.6391 32.3859C20.8605 32.2711 21.1312 32.2711 21.3527 32.3859L25.0277 34.3219C25.5938 34.6172 26.25 34.1414 26.1434 33.5098L25.4379 29.4164C25.3969 29.1703 25.4789 28.916 25.6594 28.7355L28.6371 25.8316C29.0965 25.3887 28.8422 24.6176 28.2105 24.5191L24.1008 23.9203C23.8547 23.8875 23.6332 23.7234 23.5266 23.502L21.6891 19.7777Z" fill="#FFFFFF" fill-opacity="0.85"/>
</g>
<defs>
<clipPath id="clip0_4_80">
<rect width="42" height="42" fill="white"/>
</clipPath>
</defs>
</svg>
