<?xml version="1.0" encoding="UTF-8"?>
<!DOCTYPE svg PUBLIC "-//W3C//DTD SVG 1.1//EN" "http://www.w3.org/Graphics/SVG/1.1/DTD/svg11.dtd">
<svg xmlns="http://www.w3.org/2000/svg" version="1.1" width="1120px" height="936px" style="shape-rendering:geometricPrecision; text-rendering:geometricPrecision; image-rendering:optimizeQuality; fill-rule:evenodd; clip-rule:evenodd" xmlns:xlink="http://www.w3.org/1999/xlink">
<g><path style="opacity:0.993" fill="#ffffff" d="M 389.5,-0.5 C 391.5,-0.5 393.5,-0.5 395.5,-0.5C 396.765,0.479345 398.099,1.47934 399.5,2.5C 384.261,38.3127 367.928,73.6461 350.5,108.5C 456.341,98.5941 544.175,133.261 614,212.5C 664.133,301.629 659.467,387.629 600,470.5C 582.263,488.739 564.096,506.405 545.5,523.5C 561.525,557.156 579.192,589.823 598.5,621.5C 612.098,623.144 625.764,623.978 639.5,624C 659.333,624.167 679.167,624.333 699,624.5C 732.535,624.77 766.035,623.937 799.5,622C 834.353,605.799 848.853,578.632 843,540.5C 837.584,512.417 821.084,494.584 793.5,487C 756.363,486.2 719.363,483.533 682.5,479C 675.037,478.221 667.704,476.887 660.5,475C 679.834,443.498 695.834,410.331 708.5,375.5C 735.67,371.499 763.003,368.999 790.5,368C 830.917,348.999 846.751,317.499 838,273.5C 829.368,250.869 813.535,235.702 790.5,228C 758.142,226.68 725.808,225.013 693.5,223C 682.062,203.9 670.229,185.067 658,166.5C 632.546,142.707 605.712,120.707 577.5,100.5C 612.445,97.9305 647.445,96.4305 682.5,96C 739.854,95.0332 797.187,95.6999 854.5,98C 951.893,116.727 1004.06,175.56 1011,274.5C 1014.5,331.354 996.666,380.188 957.5,421C 1032.37,483.591 1055.2,561.757 1026,655.5C 990.086,730.022 930.586,766.855 847.5,766C 726.825,768.203 606.159,767.87 485.5,765C 446.774,703.064 409.941,639.897 375,575.5C 361.847,563.261 348.014,562.427 333.5,573C 274.286,622.596 213.619,670.263 151.5,716C 148.332,718.175 146.165,717.341 145,713.5C 144.333,710.833 144.333,708.167 145,705.5C 218.782,606.051 292.948,506.884 367.5,408C 384.105,400.515 401.438,395.515 419.5,393C 464.116,363.693 471.949,326.526 443,281.5C 428.914,265.377 411.081,257.21 389.5,257C 355.168,253.7 320.835,253.7 286.5,257C 276.467,268.219 268.301,280.719 262,294.5C 243.206,334.254 225.372,374.421 208.5,415C 208.667,415.5 208.833,416 209,416.5C 249.893,409.529 291.06,407.029 332.5,409C 222.769,556.733 112.269,703.899 1,850.5C 0.617425,849.944 0.117425,849.611 -0.5,849.5C -0.5,844.167 -0.5,838.833 -0.5,833.5C 0.73077,830.313 1.89744,826.98 3,823.5C 57.7542,717.994 109.254,610.994 157.5,502.5C 157.167,502.167 156.833,501.833 156.5,501.5C 118.255,512.885 79.2546,519.218 39.5,520.5C 54.466,384.473 69.7993,248.473 85.5,112.5C 159.181,112.892 232.848,112.059 306.5,110C 337.869,75.818 365.536,38.9847 389.5,-0.5 Z"/></g>
<g><path style="opacity:0.855" fill="#f68f3f" d="M 622.5,828.5 C 634.974,829.824 646.64,833.658 657.5,840C 662.191,846.093 662.691,852.593 659,859.5C 635.56,841.249 614.894,843.916 597,867.5C 588.641,894.961 598.141,912.461 625.5,920C 629.888,920.577 634.221,920.244 638.5,919C 646.071,916.377 653.071,913.044 659.5,909C 662.704,917.969 660.704,925.635 653.5,932C 590.984,940.49 567.818,914.323 584,853.5C 593.986,840.758 606.82,832.425 622.5,828.5 Z"/></g>
<g><path style="opacity:0.857" fill="#f68f3f" d="M 793.5,828.5 C 808.134,829.814 819.801,836.314 828.5,848C 826.346,851.914 823.013,854.081 818.5,854.5C 811.854,851.846 805.187,849.179 798.5,846.5C 784.395,851.495 783.061,858.662 794.5,868C 813.724,872.226 826.224,883.726 832,902.5C 833.652,919.739 826.152,930.239 809.5,934C 800.77,934.876 792.104,934.542 783.5,933C 775.311,929.474 770.311,923.308 768.5,914.5C 769.367,909.106 772.367,905.439 777.5,903.5C 781.69,911.859 788.19,917.526 797,920.5C 804.951,918.215 810.785,913.381 814.5,906C 813.206,901.077 810.873,896.743 807.5,893C 786.895,888.893 773.895,876.727 768.5,856.5C 771.986,842.689 780.319,833.355 793.5,828.5 Z"/></g>
<g><path style="opacity:0.875" fill="#f68f3f" d="M 961.5,935.5 C 955.833,935.5 950.167,935.5 944.5,935.5C 908.073,926.682 893.239,903.682 900,866.5C 909.521,845.492 925.688,832.825 948.5,828.5C 993.797,835.072 1011.3,860.738 1001,905.5C 992.225,921.461 979.058,931.461 961.5,935.5 Z M 939.5,846.5 C 981.936,848.74 995.102,869.407 979,908.5C 956.094,925.85 935.76,923.184 918,900.5C 912.154,877.185 919.321,859.185 939.5,846.5 Z"/></g>
<g><path style="opacity:0.874" fill="#f58f3f" d="M 1119.5,926.5 C 1119.5,929.167 1119.5,931.833 1119.5,934.5C 1113.83,934.5 1108.17,934.5 1102.5,934.5C 1102.39,916.138 1098.89,898.471 1092,881.5C 1085.36,900.446 1076.36,918.113 1065,934.5C 1054.17,917.832 1045.17,900.165 1038,881.5C 1031.29,898.526 1028.13,916.192 1028.5,934.5C 1022.5,934.5 1016.5,934.5 1010.5,934.5C 1016.75,901.304 1022.25,867.971 1027,834.5C 1030.29,832.343 1033.29,833.01 1036,836.5C 1044.57,857.648 1054.24,878.315 1065,898.5C 1076.17,876.833 1087.33,855.167 1098.5,833.5C 1107.89,864.058 1114.89,895.058 1119.5,926.5 Z"/></g>
<g><path style="opacity:0.915" fill="#f58f3f" d="M 677.5,833.5 C 683.167,833.5 688.833,833.5 694.5,833.5C 694.22,858.537 695.054,883.537 697,908.5C 705.717,920.736 716.884,923.569 730.5,917C 733.491,914.01 735.657,910.51 737,906.5C 739.23,882.226 740.063,857.893 739.5,833.5C 744.167,833.5 748.833,833.5 753.5,833.5C 753.879,861.538 753.046,889.538 751,917.5C 744.255,931.873 732.922,937.54 717,934.5C 701.116,937.103 688.783,931.769 680,918.5C 677.364,890.22 676.531,861.887 677.5,833.5 Z"/></g>
<g><path style="opacity:0.927" fill="#f68f3f" d="M 831.5,833.5 C 855.5,833.5 879.5,833.5 903.5,833.5C 903.5,839.167 903.5,844.833 903.5,850.5C 893.833,850.5 884.167,850.5 874.5,850.5C 874.5,878.5 874.5,906.5 874.5,934.5C 868.5,934.5 862.5,934.5 856.5,934.5C 856.5,906.5 856.5,878.5 856.5,850.5C 848.167,850.5 839.833,850.5 831.5,850.5C 831.5,844.833 831.5,839.167 831.5,833.5 Z"/></g>
</svg>
