<svg width="34" height="23" viewBox="0 0 34 23" fill="none" xmlns="http://www.w3.org/2000/svg">
<path d="M33.2904 3.59974C32.8982 2.18021 31.7466 1.06615 30.2838 0.688802C27.632 0 17 0 17 0C17 0 6.368 0 3.71622 0.688802C2.25339 1.06615 1.10179 2.18021 0.70963 3.59974C0 6.16927 0 11.524 0 11.524C0 11.524 0 16.8786 0.70963 19.4482C1.10179 20.8677 2.25339 21.9339 3.71622 22.3112C6.368 23 17 23 17 23C17 23 27.632 23 30.2838 22.3112C31.7466 21.9339 32.8982 20.8617 33.2904 19.4482C34 16.8786 34 11.524 34 11.524C34 11.524 34 6.16927 33.2904 3.59974ZM13.5265 16.3875V6.66042L22.4094 11.524L13.5265 16.3875Z" fill="#552020"/>
</svg>
